PathFileType  4	(X/Y/Z) C:\Users\antoi\Documents\MyRepositories\mobilecap\ResultsAnalysis
DataRate	CameraRate	NumFrames	NumMarkers	Units	OrigDataRate	OrigDataStartFrame	OrigNumFrames
100.0	100.0	7	51	mm	100.0	175	232
Frame#	Time	r_knee			r_shank_antsup			r_ankle			r_calc			r_5meta			r_toe			L_knee			L_shank_antsup			L_ankle			L_calc			L_5meta			L_toe			r_sh2			r_sh3			r_sh4			L_sh2			L_sh3			r_thigh1			r_thigh2			r_thigh3			r_thigh4			r_thigh5			L_thigh1			L_thigh2			L_thigh3			L_thigh4			r.ASIS			r.PSIS			L.ASIS			L.PSIS			C7			R_Shoulder			L_Shoulder			R_Sternum			L_Sternum			R_humerus			R_elbow_med			R_elbow_lat			R_forearm			R_wrist_radius			R_wrist_ulna			L_humerus			L_elbow_med			L_elbow_lat			L_forearm			L_wrist_radius			L_wrist_ulna			R_HJC			L_HJC			R_HJC_reg			L_HJC_reg			
		X1	Y1	Z1	X2	Y2	Z2	X3	Y3	Z3	X4	Y4	Z4	X5	Y5	Z5	X6	Y6	Z6	X7	Y7	Z7	X8	Y8	Z8	X9	Y9	Z9	X10	Y10	Z10	X11	Y11	Z11	X12	Y12	Z12	X13	Y13	Z13	X14	Y14	Z14	X15	Y15	Z15	X16	Y16	Z16	X17	Y17	Z17	X18	Y18	Z18	X19	Y19	Z19	X20	Y20	Z20	X21	Y21	Z21	X22	Y22	Z22	X23	Y23	Z23	X24	Y24	Z24	X25	Y25	Z25	X26	Y26	Z26	X27	Y27	Z27	X28	Y28	Z28	X29	Y29	Z29	X30	Y30	Z30	X31	Y31	Z31	X32	Y32	Z32	X33	Y33	Z33	X34	Y34	Z34	X35	Y35	Z35	X36	Y36	Z36	X37	Y37	Z37	X38	Y38	Z38	X39	Y39	Z39	X40	Y40	Z40	X41	Y41	Z41	X42	Y42	Z42	X43	Y43	Z43	X44	Y44	Z44	X45	Y45	Z45	X46	Y46	Z46	X47	Y47	Z47	X48	Y48	Z48	X49	Y49	Z49	X50	Y50	Z50	X51	Y51	Z51	

175	1.74000000	-88.03852	491.36684	-392.44515	-52.78354	413.93396	-401.87005	-230.57224	123.92511	-412.64751	-313.78027	110.37679	-449.63326	-153.69415	48.86429	-377.78663	-97.38224	62.74862	-431.23379	-57.46625	483.92503	-768.64459	-42.35780	384.90935	-779.46419	-227.67180	134.38317	-784.38614	-313.38936	119.81589	-742.39752	-155.67105	47.38180	-822.54802	-105.08345	58.10904	-767.89689	-113.43925	315.60693	-383.41769	-124.54628	453.65021	-380.39319	-178.08948	354.17999	-378.99750	-118.54627	430.25026	-788.05822	-169.87891	317.55632	-799.00388	-166.73625	804.75954	-399.23418	-126.43600	699.67396	-388.50448	-173.57730	656.77114	-372.42574	-271.21385	758.23690	-411.31972	-222.99986	651.85498	-398.52405	-143.29270	741.60201	-804.52076	-76.31842	621.25062	-786.96962	-240.43799	690.11134	-759.63540	-167.43330	569.32442	-760.95298	-164.32162	910.84140	-466.14301	-332.04283	987.68615	-568.37839	-137.01991	884.04587	-711.63915	-324.12278	987.23365	-670.71280	-138.35472	1369.95709	-638.24496	-61.03867	1349.24126	-465.20042	-34.96584	1333.14894	-782.31554	-12.92712	1299.14302	-596.65219	-1.48855	1294.28392	-639.38773	-100.98589	1285.19117	-349.39316	-169.70861	1090.64508	-262.73808	-170.40433	1157.28344	-217.21933	-54.50883	1205.31366	-274.66934	70.06881	1225.39814	-318.69517	43.90286	1238.79531	-338.56006	-30.77587	1269.22464	-876.80742	-86.87695	1058.24621	-976.74715	-60.55673	1131.73027	-1018.54792	-1.78900	1164.62186	-926.48000	70.90690	1185.05880	-813.28815	99.10965	1183.19322	-834.16544	-257.17286	850.72899	-495.05615	-234.10150	834.55083	-699.59476	-245.05670	843.15782	-506.39648	-232.40290	842.43413	-669.88891	
176	1.75000000	-100.28611	503.15293	-393.47732	-63.78211	426.86641	-401.79505	-228.63719	128.28693	-410.65129	-310.35175	117.46882	-447.93183	-152.43904	49.62233	-377.36993	-95.83117	62.44445	-430.37213	-68.48439	496.11309	-771.85285	-51.95831	397.30547	-782.53010	-225.14813	137.76290	-785.96553	-309.69451	126.73132	-743.70782	-154.44085	48.38921	-823.04285	-104.20265	58.31720	-768.71253	-120.61353	326.44906	-382.40785	-137.09593	463.73687	-381.77582	-186.67298	361.91269	-379.77201	-130.09803	439.52493	-790.81013	-176.37690	324.99293	-801.69303	-165.07542	819.35361	-398.71795	-129.29164	712.85695	-388.67624	-178.46331	672.21063	-373.20065	-270.83863	778.13833	-412.89083	-227.71284	669.80701	-400.08784	-142.49851	758.40053	-805.83196	-80.97894	634.84451	-789.34938	-241.53051	710.83205	-760.96987	-174.21373	587.01937	-763.45619	-158.27113	931.77888	-465.07760	-325.82492	1006.90560	-569.17513	-129.42499	904.69239	-711.75900	-317.56036	1006.63042	-671.46420	-140.79397	1394.09790	-638.09493	-65.11981	1375.07873	-465.62038	-37.69789	1358.68007	-781.78546	-14.91471	1323.99984	-596.43429	-3.16839	1320.13420	-638.98397	-105.66764	1312.21043	-349.88889	-176.71157	1117.27994	-262.10957	-176.69485	1185.54145	-216.80915	-60.38680	1232.06124	-275.07099	64.22631	1250.73743	-319.50915	38.14269	1263.92174	-339.71222	-34.75440	1295.82624	-876.34146	-98.38538	1086.90049	-978.50100	-70.45139	1160.00957	-1020.31549	-9.23268	1190.11066	-928.86688	64.87663	1207.28920	-816.25526	92.74184	1204.35062	-836.82909	-250.43973	870.81113	-495.15886	-226.14417	854.49885	-699.54553	-238.16006	862.57265	-505.85039	-224.87845	862.13087	-670.20512	
177	1.76000000	-113.82313	516.14936	-395.27177	-75.93752	441.21507	-402.25782	-225.82800	133.78633	-408.01932	-305.56535	126.68574	-445.91509	-150.82771	50.81378	-376.71535	-93.93369	62.13141	-429.35696	-81.50484	509.74961	-774.76206	-62.99276	411.68978	-785.70498	-221.91378	142.21819	-788.19237	-304.59753	135.61277	-745.56602	-152.88245	49.53622	-823.58295	-103.60879	58.55551	-770.04201	-128.34820	338.68786	-381.48262	-151.02413	474.90422	-383.89632	-195.96984	370.70812	-380.87839	-143.26181	450.07491	-793.23047	-183.38196	334.02996	-804.90050	-163.42895	834.92711	-398.55139	-132.56725	726.99043	-389.21110	-183.71627	688.67659	-374.33202	-270.45400	799.19939	-414.45957	-232.85835	688.82003	-401.94309	-142.71769	776.32762	-807.46267	-87.16221	649.61440	-791.81733	-243.53312	732.72342	-762.05625	-182.17198	605.85171	-765.27069	-152.10318	953.56620	-464.34840	-319.33289	1027.10191	-569.84463	-121.88597	926.66678	-712.11531	-310.85049	1027.17269	-672.09526	-142.89233	1418.79176	-637.92583	-69.27371	1400.82716	-466.15050	-40.82818	1384.03135	-781.31048	-15.65547	1348.97759	-593.73265	-5.02678	1346.19474	-638.50201	-110.26045	1338.89840	-350.82852	-184.32005	1143.69714	-262.57415	-183.18728	1212.81478	-217.05203	-66.10605	1257.41292	-275.58853	58.74521	1274.30509	-320.38443	32.75340	1287.61557	-340.64557	-39.05495	1321.96185	-875.57586	-110.67162	1114.88716	-979.05513	-80.70772	1187.05956	-1021.10937	-16.83292	1214.24695	-930.65005	59.29113	1228.03102	-819.00404	86.78023	1223.93903	-839.54846	-243.48705	891.76143	-495.50208	-218.15786	875.71425	-699.78380	-231.06181	882.99232	-505.61980	-217.36477	883.10729	-670.74422	
178	1.77000000	-128.20302	530.32001	-397.92855	-88.85992	457.09985	-403.38941	-221.75534	140.73059	-405.01742	-298.63092	138.57593	-443.53315	-148.66326	52.73111	-375.74742	-91.44115	61.81857	-428.08223	-96.09479	524.88807	-777.35956	-74.80179	428.16512	-789.08940	-217.39321	148.42527	-791.26137	-297.45574	147.05864	-747.90344	-150.95939	51.03348	-824.13970	-101.82246	58.77790	-771.61650	-136.21030	352.55684	-380.80515	-165.81478	487.41372	-386.68442	-205.32475	380.93423	-382.12790	-157.22712	462.02915	-795.42129	-190.41783	344.62410	-807.93980	-161.52839	851.37609	-398.83258	-136.09604	741.84743	-390.07775	-189.41191	705.97929	-375.90173	-269.83576	821.26644	-415.66937	-238.24962	708.82418	-403.98102	-143.63900	795.01484	-809.15844	-94.38467	665.49850	-794.12486	-246.07943	755.69681	-762.95666	-191.09085	626.03764	-766.80325	-145.84517	976.07343	-464.25166	-312.67097	1048.00048	-570.23097	-114.73148	949.62753	-712.05404	-304.21509	1048.49744	-672.41194	-144.48004	1443.50146	-637.78091	-73.37437	1426.16908	-466.51658	-44.12641	1409.13081	-781.00752	-15.75047	1374.79464	-590.20288	-6.38725	1371.99427	-638.78736	-114.73123	1365.08292	-351.87273	-192.18315	1169.85740	-263.90323	-189.69122	1238.68753	-217.71112	-71.59343	1281.21514	-276.05132	53.57889	1296.09301	-321.04483	27.76112	1309.83938	-341.22385	-43.61597	1347.33924	-874.75394	-123.30099	1141.95099	-978.37127	-91.16929	1212.57957	-1020.79878	-24.63910	1236.75992	-931.83166	54.15555	1247.03256	-821.41180	81.17822	1241.96018	-842.35896	-236.39877	913.43928	-495.78017	-210.36406	897.79866	-700.00512	-223.69511	904.49874	-505.68006	-210.02579	905.30118	-670.86821	
179	1.78000000	-142.80602	545.64648	-401.51570	-102.28990	474.91725	-405.23589	-215.64276	149.31067	-401.44112	-288.78159	153.03357	-440.64261	-145.80385	54.93420	-374.67415	-87.99367	61.59965	-426.22091	-111.21465	541.49042	-779.69091	-86.56563	446.45841	-792.11766	-210.45557	156.96398	-795.34308	-287.28045	161.42880	-751.04937	-148.26634	53.22992	-825.19242	-98.18440	59.09835	-773.44156	-143.82821	368.20721	-380.60677	-180.97294	501.24904	-390.20344	-214.08216	392.35523	-383.71017	-170.96519	475.28546	-797.26545	-196.80597	356.59787	-810.51570	-159.46114	868.13839	-399.37468	-139.71713	757.29300	-391.33095	-195.18182	723.96459	-377.88874	-269.03936	843.83673	-416.77289	-243.48406	729.69527	-406.21245	-144.80504	814.18076	-810.47529	-101.88401	682.32207	-796.03483	-248.54731	779.75321	-764.01528	-200.33666	647.44636	-767.95046	-139.54541	999.28842	-464.55770	-305.99374	1069.24992	-570.53228	-107.88786	973.21387	-711.61189	-297.72572	1070.11962	-672.43081	-145.61933	1467.72914	-637.64302	-77.56771	1450.59041	-467.12693	-47.31457	1433.62828	-780.74482	-16.46835	1400.88670	-588.83574	-7.18902	1397.61074	-638.91905	-118.99333	1390.37049	-353.10527	-200.00339	1195.02528	-266.03142	-195.95402	1262.88389	-218.66689	-76.80836	1303.25843	-276.51382	48.72764	1315.98988	-321.42820	23.17374	1330.29344	-341.64469	-48.32120	1371.78084	-874.07817	-135.86890	1167.83692	-976.21718	-101.76903	1236.38612	-1019.57502	-32.63697	1257.60911	-932.43961	49.39277	1264.52215	-823.48400	75.81506	1258.52499	-845.36575	-229.15905	935.68091	-495.87244	-202.65111	920.32309	-700.05831	-216.10006	926.81280	-505.84499	-202.73179	928.21800	-670.58461	
180	1.79000000	-157.69328	561.72869	-406.11307	-116.03198	494.26170	-408.02178	-207.36992	159.69711	-396.98777	-276.27475	169.58040	-437.49092	-142.94360	57.26347	-373.77056	-83.59350	62.43398	-422.88900	-126.08419	559.38927	-781.59825	-97.55678	466.05764	-794.05362	-200.44422	167.75715	-800.70481	-273.47520	178.34579	-755.35535	-144.70233	56.13516	-826.80383	-93.41356	60.07038	-775.82427	-150.95985	385.37011	-380.93524	-196.27370	515.69241	-394.84161	-221.97050	404.49803	-386.09014	-183.66151	489.31776	-798.60086	-201.63055	369.51801	-813.25424	-157.26064	884.66139	-400.14274	-143.24343	773.00798	-393.10765	-200.60977	742.40653	-380.02975	-268.14471	866.27353	-418.12584	-248.31921	751.02320	-408.58395	-145.66210	833.52165	-811.14978	-109.10382	699.76637	-797.38252	-250.54682	804.49766	-765.23780	-209.12766	669.64351	-768.60258	-133.27825	1023.06670	-464.95603	-299.37377	1090.36523	-570.99931	-101.09227	997.35247	-711.38254	-291.32235	1091.56273	-672.26093	-146.47717	1491.05629	-637.32102	-81.91139	1473.54010	-468.16483	-50.54022	1456.94693	-780.30083	-17.87659	1425.81426	-589.28960	-7.59204	1422.84301	-637.64497	-122.87228	1414.05068	-354.76260	-207.63207	1218.57714	-268.79201	-201.88357	1285.23987	-219.83641	-81.74391	1323.37412	-276.98944	44.20483	1333.97985	-321.58052	18.95683	1348.82885	-341.89662	-52.99724	1395.06078	-873.53370	-148.14818	1192.19810	-972.96905	-112.34616	1258.39874	-1017.85033	-40.70601	1276.87850	-932.54220	44.74756	1280.81519	-825.37531	70.50518	1273.66048	-848.39763	-221.59336	958.12239	-495.98776	-194.68985	943.06169	-700.14344	-208.27741	949.37526	-506.09118	-195.20907	951.32078	-670.46076	
181	1.80000000	-173.21868	577.93931	-411.50725	-129.23843	513.60353	-411.61819	-199.21785	172.13501	-392.60571	-263.88539	187.02040	-435.46845	-140.96503	62.02155	-372.68439	-78.78992	67.26578	-417.25369	-140.59101	577.94594	-782.78245	-106.93095	486.17441	-794.94500	-189.43003	180.33445	-806.65312	-258.38748	196.30308	-759.84072	-141.08933	60.50911	-827.82211	-88.23241	63.96331	-779.02011	-157.33394	403.27556	-381.79407	-210.84982	529.79715	-400.41964	-228.94915	417.25867	-389.19277	-194.43133	503.58573	-799.91348	-204.16828	382.88755	-816.71636	-154.79428	900.35608	-401.30070	-146.61966	788.34328	-395.55469	-205.61399	760.66482	-382.26357	-266.86515	888.17338	-419.13823	-252.77787	772.15862	-410.94145	-145.79689	852.41442	-811.35135	-115.87498	717.26020	-797.90869	-251.98827	829.04483	-766.47446	-217.19029	692.22060	-769.02147	-127.19521	1046.96024	-465.33045	-292.85645	1110.97177	-571.44882	-94.50316	1021.94618	-711.75360	-285.21835	1112.46868	-672.05067	-147.05475	1513.11912	-636.77187	-86.20016	1494.57833	-469.28231	-54.22932	1478.39207	-779.56843	-19.02985	1448.73007	-589.30450	-7.97003	1445.51021	-636.71629	-126.22936	1435.60005	-356.62706	-214.81584	1240.17026	-271.73828	-207.51482	1305.54350	-221.20071	-86.40702	1341.56435	-277.34754	39.99692	1350.15464	-321.51251	15.11671	1365.59429	-341.83258	-57.45997	1416.77437	-872.84333	-159.94816	1214.74270	-969.18078	-122.65377	1278.53560	-1015.84880	-48.68009	1294.57129	-932.39497	39.97652	1295.89742	-827.14029	65.00026	1287.29225	-850.79371	-213.73625	980.30921	-496.29902	-186.59158	965.83654	-700.46468	-200.30016	971.83199	-506.25134	-187.82026	974.27952	-670.65355	
